<svg xmlns="http://www.w3.org/2000/svg" viewBox="0 0 1200 1200"><defs><style>.cls-1{fill:#F0E276;}.cls-2{fill:#2f7346;}.cls-3{fill:#f0a76e;}.cls-4{fill:#3a222b;}.cls-5{fill:#fff;}.cls-6{fill:#cdab5d;}</style></defs><g id="Graphic_Elements" data-name="Graphic Elements"><circle class="cls-1" cx="613.69" cy="580.81" r="356.75"/><path class="cls-2" d="M566.88,599.53l-34.15,16.32A67.55,67.55,0,0,0,495,667.21L457.7,927.34H794.41V678.2c0-.69,0-1.38,0-2.06-.83-25.91-20.55-47.32-46.18-51.23L630,606.87Z"/><path class="cls-3" d="M759.36,430.78A104.58,104.58,0,0,0,654.79,326.2c-37.41,0-73.79,19.18-92.28,48.71-7.06,9.54-17.55,36-24.74,63.38,0,0-23.39,7.3-27.6,14.45s12.57,19.95,12.57,19.95-3.91,54.41,10.79,64a64.89,64.89,0,0,0,12.06,5.82,129.35,129.35,0,0,0,46.43,8.2l32,82,65-72-11.32-28.07A104.53,104.53,0,0,0,759.36,430.78Z"/><path class="cls-3" d="M380.3,778.53a5.71,5.71,0,0,1,5.66-6.35h0A22.1,22.1,0,0,1,403.64,781l12,16a5,5,0,0,1,.46.73l16.51,30.75a5.67,5.67,0,0,1,.6,3.59l-4.12,25.76a5.7,5.7,0,0,1-5.63,4.79H389.36a5.71,5.71,0,0,1-4.88-2.74l-22.71-37.52a5.73,5.73,0,0,1-.74-1.94l-2-10.9a5.71,5.71,0,0,1,3.49-6.3h0a5.71,5.71,0,0,1,6.66,1.85l2,2.66-.94-9.93c-.07-3.11.32-4.15,2.29-4.89l2.24-.94a5.24,5.24,0,0,1,5.73,1.2Z"/><path class="cls-4" d="M769.23,412.54c-15.88-102.32-120.74-101-148.07-90.22S548.47,356.55,553,393.76c0,0,3.6-9.56,20-26.53,0,0,10.65,54.84,57.68,83.44a44.4,44.4,0,0,1,5.93,4.36c4.88-7.27,11.75-11.36,18.3-10,10,2.14,15.46,16.24,12.21,31.51a39.52,39.52,0,0,1-6,14.24c12.37,26.07,19.9,55,23.52,61.33C684.65,552.14,785.12,514.86,769.23,412.54Z"/><path class="cls-4" d="M568.19,437.26c-2.12,4.6-6.76,7-10.36,5.33s-4.8-6.73-2.68-11.33,6.75-7,10.35-5.34S570.31,432.65,568.19,437.26Z"/><path class="cls-4" d="M582.09,423a2,2,0,0,1-1.17-.94c-.31-.55-7.81-13.34-20.57-10.61a2,2,0,0,1-2.43-1.87,2.54,2.54,0,0,1,1.86-2.8c15.59-3.33,24.48,11.93,24.86,12.58a2.59,2.59,0,0,1-.75,3.3A2,2,0,0,1,582.09,423Z"/><path class="cls-4" d="M543.69,503.19c-14.47,0-20.19-8.42-20.49-8.88a2.4,2.4,0,1,1,4-2.64c.35.51,8.24,11.57,30.69,4.17a2.4,2.4,0,0,1,1.5,4.56A50.27,50.27,0,0,1,543.69,503.19Z"/><path class="cls-4" d="M532.73,615.85A67.55,67.55,0,0,0,495,667.21L457.7,927.34h33.38C495.74,881.62,532.73,615.85,532.73,615.85Z"/><path class="cls-4" d="M520.05,934.43H387.81A17.45,17.45,0,0,1,376,929.8L231.11,796a4.77,4.77,0,0,1,3.24-8.28H369.59a21.38,21.38,0,0,1,14.49,5.66L524.49,923.06A6.55,6.55,0,0,1,520.05,934.43Z"/><path class="cls-3" d="M601.57,892.92l-76.08,9.75c-5.82-10-18.94-30.41-32.43-36.63-18.12-8.36-33.64-13.7-36.66-23.07-2.48-7.68-12.11.82-8.88,11.66.7,2.38,13.29,18.37,13.29,18.37l-65.24-14.18a6.7,6.7,0,0,0-4,12.72l42.88,18.2-.06,2-49.52-13.12a4.14,4.14,0,0,0-5,2.84l-.16.51a4.15,4.15,0,0,0,2.14,4.89l17.52,8.64L387,891.77a4.15,4.15,0,0,0-5.14,2.63l-.09.28a4.14,4.14,0,0,0,1.91,5l26,14.52-11.1-3.88a4.27,4.27,0,0,0-5.25,2,4.14,4.14,0,0,0,1.72,5.5l30.3,16.52a73.08,73.08,0,0,0,34.67,8.94h0l141.51,32.71Z"/><path class="cls-4" d="M690.47,666.3V874.54l-88.9,18.38v83H745.63a48.77,48.77,0,0,0,48.78-48.77V666.3a52,52,0,0,0-52-52h0A52,52,0,0,0,690.47,666.3Z"/><path class="cls-5" d="M250.8,799.41a2.9,2.9,0,1,1-2.9-2.89A2.9,2.9,0,0,1,250.8,799.41Z"/><path class="cls-4" d="M600.93,573.56h0a68.71,68.71,0,0,0,22.6-19L649,521.28s-29.55,24.92-57,29.45Z"/><path class="cls-5" d="M729.23,565.41c-7.72-10.87-24.87-23.15-44.58-13.27-12.64,6.33-43.18,45.78-63.5,73.31l-20.22-51.89s-34.34,11.5-34,26,27,72.4,27,72.4c3.53,11.28,23.41,14.63,48.78-14.18,37.73-42.84,99.81-29,113.1-41.9S737,576.27,729.23,565.41Z"/><path class="cls-6" d="M782.49,427.13c24-41.19,5.1-97.44-42.63-126.1s-106.27-18.94-131.34,21.6L509.66,312.3a11.64,11.64,0,0,0-11.42,17.14C512,355,548.64,403.84,643.78,461s155.44,66.58,184.5,66.7A11.64,11.64,0,0,0,838,509.54Z"/><path class="cls-4" d="M679.28,389.86c-10.07-7.16-14.86-6.86-13.58-5.35,36.29,42.76,113.39,46.08,116.66,46.2h.13a3.58,3.58,0,0,0,2-.66l-2-2.92c.6-1,1.06-2.13,1.61-3.19a3.66,3.66,0,0,0-1.48-.4c-.55,0-40.21-1.72-75.19-17.67C693.76,399.63,691.88,398.81,679.28,389.86Z"/></g></svg>