<svg xmlns="http://www.w3.org/2000/svg" viewBox="0 0 1200 1200"><defs><style>.cls-1{fill:#88b44e;}.cls-2{fill:#3a222b;}.cls-3{fill:#fff;}.cls-4{fill:#f0a76e;}.cls-5{fill:#EAEFE4;}.cls-6{fill:#F0E276;}.cls-7{fill:#cdab5d;}</style></defs><g id="Graphic_Element" data-name="Graphic Element"><circle class="cls-1" cx="600" cy="600" r="356.75"/><path class="cls-2" d="M373.76,801.12l-60.39,5.64a9.3,9.3,0,0,1-9.71-6.4L262.5,672.65a9.29,9.29,0,0,1,8-12.1l60.39-5.64a9.28,9.28,0,0,1,9.71,6.4L381.74,789A9.3,9.3,0,0,1,373.76,801.12Z"/><path class="cls-3" d="M279.05,672.35a3.78,3.78,0,1,1-3.77-3.78A3.77,3.77,0,0,1,279.05,672.35Z"/><path class="cls-4" d="M491.37,834.25l-73.13-36L376,860.33c-24.88-38.56-35.39-62.08-35.39-62.08L348,760.48a15.36,15.36,0,0,0-13-18.14l-33.33-9.16,32.68-22.78a10.52,10.52,0,0,0-11.91-17.35l-41.72,30a12.9,12.9,0,0,0-5.37,10.48v16.89c7.54,50.24,34.79,63.73,34.79,63.73s13.33,52.53,17.17,82.9c3.36,26.59,26,77.89,44.38,84.58,10.91,4,31.37-3.06,41.21-19.78Z"/><path class="cls-5" d="M471,869.38c-1.51,38.15-3.05,76.94-4.48,112.9H748.29l-1.83-72.66,6.48-97.14,32.28,39.94a4.42,4.42,0,0,0,5.78,1L894.3,789a4.42,4.42,0,0,0,1.31-6.25l-74.36-108.5a95.8,95.8,0,0,0-79-41.66H657.13l-111.54,5-30.89,8a120.33,120.33,0,0,0-67.46,56.62l-49,90.14a2.82,2.82,0,0,0,1.18,3.84l74,38.13C472.36,845.65,471.47,857.26,471,869.38Z"/><path class="cls-6" d="M763.86,635.11a97.9,97.9,0,0,0-15.52-2.34l-1.11-.07-1.64-.08c-1.13,0-2.26-.07-3.39-.07H719.67c-31.83,0-33.5,127.24-33.5,127.24L513.65,752.7s0-17.93,7.63-50.78c6.87-29.54,24.31-64.37,24.31-64.37l-16.2,4.21c-4.68,8-8.89,15.19-11.8,20.43-15.2,27.43-39.17,84.76-44.17,172.12-.22,3.92-.6,8.13-1,12.24-.59,7.45-1.08,15-1.39,22.83q-.58,14.68-1.17,29.44v0q-.36,9-.71,17.89c-.37,9.44-.75,18.84-1.12,28.13-.3,7.67-.6,15.3-.9,22.8,0,.44,0,.89,0,1.33-.18,4.48-.36,8.89-.53,13.29H748.29l-1.83-72.66,6.48-97.14s-15.13-17.59-15.69-34.13C736.33,751.12,728.79,644.12,763.86,635.11Z"/><path class="cls-4" d="M807.9,982.28H898L924,955a50.6,50.6,0,0,0,9.86-54.88L882.57,796.28l-73.66,45.94,50.75,66.38Z"/><path class="cls-7" d="M686.47,403.21a97.82,97.82,0,0,0-3.53-15.5c-18-57.33-84.83-90.19-149.23-73.39-35.36,9.23-62.64,31.51-77.06,59.22-52.8,8.13-89.15,28-92.66,55.34-5.74,44.72,78.62,92.4,188.43,106.5S755.9,524.67,761.64,480C765.14,452.72,735.21,424.38,686.47,403.21Z"/><path class="cls-4" d="M653.7,584.71,653,548.86a165.32,165.32,0,0,0,4.47-21.25,11.15,11.15,0,0,0,4.15.81c9.26,0,16.76-11.78,16.76-26.33s-7.5-26.32-16.76-26.32a10.61,10.61,0,0,0-2.64.33c-.92-12.85-2.41-21.18-2.41-21.18a77,77,0,0,0-4.15-14.67c-26.19-11.63-79.46-29-139.54-12.87-16.68,4.48-28.07,7.68-36,10.85A82.15,82.15,0,0,0,470.42,487s16.85,121.57,94.39,128c.08,7.57-.42,14-2.47,17.58-.19.34-16.75,5-16.75,5s-12,82.94,63.13,82.94,61.75-88,61.75-88S652.67,613.52,653.7,584.71Z"/><path class="cls-2" d="M660.09,512.87a2.46,2.46,0,0,1-1.76-.34,2.53,2.53,0,0,1-1.08-2.91l6.6-20.88a2.53,2.53,0,0,1,4.83,1.52l-3.62,11.43,3.86-3.71a2.52,2.52,0,0,1,3.5,3.64l-11,10.58A2.45,2.45,0,0,1,660.09,512.87Z"/><path class="cls-2" d="M521.1,521.32c.91,5.26-1.69,10.1-5.81,10.81s-8.18-3-9.09-8.24,1.69-10.1,5.8-10.81S520.19,516.06,521.1,521.32Z"/><path class="cls-2" d="M590.39,505.54c.91,5.26-1.69,10.1-5.81,10.81s-8.19-3-9.09-8.23,1.69-10.1,5.8-10.81S589.48,500.28,590.39,505.54Z"/><path class="cls-2" d="M554.4,541.12l-.25-.13c-4.75-3-7.06-6.26-6.84-9.73.31-5.23,6.22-8.14,6.89-8.46a2.51,2.51,0,0,1,3.35,1.21,2.54,2.54,0,0,1-1.19,3.37c-1.26.6-3.91,2.42-4,4.19-.08,1.44,1.51,3.27,4.49,5.13a2.53,2.53,0,0,1-2.44,4.42Z"/><path class="cls-2" d="M489.08,503.84a2.53,2.53,0,0,1-2.2-4.3c.6-.59,14.94-14.28,31.92-7.3a2.52,2.52,0,1,1-1.92,4.67c-13.95-5.72-26.35,6.13-26.47,6.25A2.47,2.47,0,0,1,489.08,503.84Z"/><path class="cls-2" d="M595.2,477.59a2.48,2.48,0,0,1-1.74,0c-.66-.25-16.3-6-26.78,4.78a2.53,2.53,0,1,1-3.62-3.53c12.82-13.14,31.41-6.28,32.2-6a2.52,2.52,0,0,1-.06,4.74Z"/><path class="cls-2" d="M560.87,576.53c-12.84,0-22.62-7.49-22.76-7.59a2.44,2.44,0,0,1,3-3.85c.71.55,17.58,13.37,35.1,1.83s15.93-22.1,15.86-22.55a2.44,2.44,0,0,1,2-2.81,2.41,2.41,0,0,1,2.82,1.93c.1.57,2.41,14.08-18,27.51A32.29,32.29,0,0,1,560.87,576.53Z"/><path class="cls-2" d="M457,464c-.4,11.84,5.54,33.92,17.86,44.36-3.21-12.75-4.42-21.37-4.42-21.37a82.1,82.1,0,0,1,6.42-48.68h-.18c-7.16,2.87-11.54,5.74-14.4,9.55C458.4,453,457.27,459.64,457,464Z"/><path class="cls-2" d="M667.16,397.88a2.35,2.35,0,0,1-1.28-.11c-27.9-10-60-17.58-93-21.81-35.35-4.54-70.51-5.15-101.7-1.77a2.52,2.52,0,0,1-2.78-2.24,2.42,2.42,0,0,1,2.23-2.78c31.58-3.42,67.16-2.81,102.9,1.78,33.29,4.28,65.81,11.91,94.05,22.07a2.51,2.51,0,0,1,1.51,3.23A2.48,2.48,0,0,1,667.16,397.88Z"/><path class="cls-2" d="M586.27,613.9a84.34,84.34,0,0,1-21.5,1c.09,7.59-.37,14.08-2.43,17.68-.05.1,58.92,7.2,77.77-54l0-.09C629,595.87,612.06,609.45,586.27,613.9Z"/><path class="cls-2" d="M669.48,448.88a160.63,160.63,0,0,0-17-8.61s0,.09,0,.13a1.19,1.19,0,0,1-.09-.15c-19.76-8.78-55-20.81-96.87-19.25.59,1.69,18.71,51.28,103.43,55.18a11.26,11.26,0,0,1,2.64-.41c4,0,7.65,2.31,10.54,6A106.32,106.32,0,0,0,669.48,448.88Z"/></g></svg>